HIERARCHY
ROOT Hips
{
	OFFSET 0.000000 0.000000 0.000000
	CHANNELS 6 Xposition Yposition Zposition Zrotation Yrotation Xrotation 
	JOINT LHipJoint
	{
		OFFSET 0.000000 0.000000 0.000000
		CHANNELS 3 Zrotation Yrotation Xrotation
		JOINT LeftUpLeg
		{
			OFFSET 1.363060 -1.794630 0.839290
			CHANNELS 3 Zrotation Yrotation Xrotation
			JOINT LeftLeg
			{
				OFFSET 2.448110 -6.726130 0.000000
				CHANNELS 3 Zrotation Yrotation Xrotation
				JOINT LeftFoot
				{
					OFFSET 2.562200 -7.039590 0.000000
					CHANNELS 3 Zrotation Yrotation Xrotation
					JOINT LeftToeBase
					{
						OFFSET 0.157640 -0.433110 2.322550
						CHANNELS 3 Zrotation Yrotation Xrotation
						End Site
						{
							OFFSET 0.000000 0.000000 0.000000
						}
					}
				}
			}
		}
	}
	JOINT RHipJoint
	{
		OFFSET 0.000000 0.000000 0.000000
		CHANNELS 3 Zrotation Yrotation Xrotation
		JOINT RightUpLeg
		{
			OFFSET -1.305520 -1.794630 0.839290
			CHANNELS 3 Zrotation Yrotation Xrotation
			JOINT RightLeg
			{
				OFFSET -2.542530 -6.985550 0.000000
				CHANNELS 3 Zrotation Yrotation Xrotation
				JOINT RightFoot
				{
					OFFSET -2.568260 -7.056230 0.000000
					CHANNELS 3 Zrotation Yrotation Xrotation
					JOINT RightToeBase
					{
						OFFSET -0.164730 -0.452590 2.363150
						CHANNELS 3 Zrotation Yrotation Xrotation
						End Site
						{
							OFFSET 0.000000 0.000000 0.000000
						}
					}
				}
			}
		}
	}
	JOINT LowerBack
	{
		OFFSET 0.000000 0.000000 0.000000
		CHANNELS 3 Zrotation Yrotation Xrotation
		JOINT Spine
		{
			OFFSET 0.028270 2.035590 -0.193380
			CHANNELS 3 Zrotation Yrotation Xrotation
			JOINT Spine1
			{
				OFFSET 0.056720 2.048850 -0.042750
				CHANNELS 3 Zrotation Yrotation Xrotation
				JOINT Neck
				{
					OFFSET 0.000000 0.000000 0.000000
					CHANNELS 3 Zrotation Yrotation Xrotation
					JOINT Neck1
					{
						OFFSET -0.054170 1.746240 0.172020
						CHANNELS 3 Zrotation Yrotation Xrotation
						JOINT Head
						{
							OFFSET 0.104070 1.761360 -0.123970
							CHANNELS 3 Zrotation Yrotation Xrotation
							End Site
							{
								OFFSET 0.000000 0.000000 0.000000
							}
						}
					}
				}
				JOINT LeftShoulder
				{
					OFFSET 0.000000 0.000000 0.000000
					CHANNELS 3 Zrotation Yrotation Xrotation
					JOINT LeftArm
					{
						OFFSET 3.362410 1.200890 -0.311210
						CHANNELS 3 Zrotation Yrotation Xrotation
						JOINT LeftForeArm
						{
							OFFSET 4.983000 -0.000000 -0.000000
							CHANNELS 3 Zrotation Yrotation Xrotation
							JOINT LeftHand
							{
								OFFSET 3.483560 -0.000000 -0.000000
								CHANNELS 3 Zrotation Yrotation Xrotation
								JOINT LeftFingerBase
								{
									OFFSET 0.000000 0.000000 0.000000
									CHANNELS 3 Zrotation Yrotation Xrotation
									JOINT LeftHandIndex1
									{
										OFFSET 0.715260 -0.000000 -0.000000
										CHANNELS 3 Zrotation Yrotation Xrotation
										End Site
										{
											OFFSET 0.000000 0.000000 0.000000
										}
									}
								}
								JOINT LThumb
								{
									OFFSET 0.000000 0.000000 0.000000
									CHANNELS 3 Zrotation Yrotation Xrotation
									End Site
									{
										OFFSET 0.000000 0.000000 0.000000
									}
								}
							}
						}
					}
				}
				JOINT RightShoulder
				{
					OFFSET 0.000000 0.000000 0.000000
					CHANNELS 3 Zrotation Yrotation Xrotation
					JOINT RightArm
					{
						OFFSET -3.136600 1.374050 -0.404650
						CHANNELS 3 Zrotation Yrotation Xrotation
						JOINT RightForeArm
						{
							OFFSET -5.241900 -0.000000 -0.000000
							CHANNELS 3 Zrotation Yrotation Xrotation
							JOINT RightHand
							{
								OFFSET -3.444170 -0.000000 -0.000000
								CHANNELS 3 Zrotation Yrotation Xrotation
								JOINT RightFingerBase
								{
									OFFSET 0.000000 0.000000 0.000000
									CHANNELS 3 Zrotation Yrotation Xrotation
									JOINT RightHandIndex1
									{
										OFFSET -0.622530 -0.000000 -0.000000
										CHANNELS 3 Zrotation Yrotation Xrotation
										End Site
										{
											OFFSET 0.000000 0.000000 0.000000
										}
									}
								}
								JOINT RThumb
								{
									OFFSET 0.000000 0.000000 0.000000
									CHANNELS 3 Zrotation Yrotation Xrotation
									End Site
									{
										OFFSET 0.000000 0.000000 0.000000
									}
								}
							}
						}
					}
				}
			}
		}
	}
}
MOTION
Frames: 9
Frame Time: 0.008333
10.707162 18.476401 1.377692 1.160703 3.217738 -1.266336 -7.628982 3.015051 5.821799 -15.945394 -7.097614 -5.471941 -1.488483 6.429544 20.885589 -2.150955 8.346123 1.882390 0.070454 -1.684463 -4.635085 3.891117 -1.338284 0.190585 10.110482 10.827369 -23.710215 -5.170903 -14.783077 45.034030 4.069624 -14.012498 0.874295 -0.610273 4.998205 -13.903790 -0.693050 -1.729343 5.208763 1.383408 -2.076939 -2.843287 2.551078 -1.343664 -1.134247 -1.269146 7.329351 -6.316147 1.327942 9.453126 6.120304 -0.885505 4.720457 3.382585 -3.738043 -2.751064 0.463890 -81.234121 0.047882 33.177793 36.477885 -45.661660 -17.032429 -0.748056 -0.494116 -28.618672 24.353692 16.376370 7.543790 -7.125000 0.000000 0.000000 -2.470387 47.918210 -0.198958 7.448572 2.137002 -0.475837 74.697410 -9.269129 18.542433 -6.896388 17.375071 -1.593624 0.723977 -0.657432 -5.399508 -20.834531 15.496599 -6.268709 7.125000 0.000000 0.000000 4.170074 -12.677676 3.161687
10.708028 18.484021 1.476003 1.426192 3.475875 -1.103679 -7.666156 3.055250 5.903840 -16.177586 -7.210913 -5.046478 -1.568698 6.253006 20.420530 -2.197869 8.459126 1.952007 0.103362 -2.055588 -5.659855 3.926816 -1.302951 0.114406 9.555469 11.071514 -23.918486 -4.754030 -14.485870 43.570604 4.134299 -14.173782 1.256746 -0.571218 4.838615 -13.449171 -1.024216 -1.772009 5.077004 1.379818 -2.153508 -2.867926 2.709581 -1.395785 -1.134538 -1.271070 7.292518 -6.219951 1.245308 9.403288 6.081235 -0.933915 4.692771 3.348154 -3.733670 -2.760910 0.473288 -81.148566 -0.138117 33.451768 37.174487 -46.074172 -17.505543 -0.749247 -0.434088 -28.588227 25.006103 14.964042 7.089171 -7.125000 0.000000 0.000000 -1.621362 46.422231 -0.072874 7.458723 2.111364 -0.490850 74.695323 -9.727337 17.930693 -6.595253 16.962756 -1.512938 0.733796 -0.665367 -5.067856 -20.924155 15.649273 -6.359926 7.125000 0.000000 0.000000 4.110622 -12.500027 3.131662
10.708856 18.490915 1.573931 1.476866 3.738978 -1.014350 -7.691436 3.120827 6.009137 -16.169625 -7.263809 -4.618615 -1.645364 6.083632 19.958043 -2.214355 8.510154 2.109469 0.132168 -2.334021 -6.430079 3.983781 -1.282128 0.046710 9.246491 11.282837 -24.005194 -4.332345 -14.150844 42.067795 4.234341 -14.449011 1.698987 -0.586679 4.901438 -13.628253 -1.140894 -1.836969 5.023642 1.403977 -2.238475 -2.864293 2.829721 -1.452215 -1.089415 -1.212621 7.271045 -6.251530 1.147231 9.375836 6.016209 -0.992832 4.674008 3.340314 -3.722209 -2.765808 0.484339 -81.081530 -0.380603 33.636804 37.933655 -46.509151 -18.036376 -0.746570 -0.394358 -28.565816 25.355204 14.061093 6.762400 -7.125000 0.000000 0.000000 -1.166498 45.449665 -0.016418 7.473521 2.088943 -0.500316 74.722439 -10.071399 17.166635 -6.296024 16.545333 -1.436415 0.736350 -0.680395 -4.572631 -20.957101 15.913993 -6.475181 7.125000 0.000000 0.000000 4.100431 -12.206621 3.149063
10.709664 18.497439 1.671664 1.417635 4.004622 -0.962538 -7.710631 3.199387 6.126332 -16.038795 -7.285802 -4.189524 -1.720214 5.917924 19.496872 -2.215272 8.529475 2.311874 0.158875 -2.565029 -7.070071 4.051626 -1.268729 -0.016645 9.063392 11.477367 -24.029706 -3.908197 -13.796467 40.544836 4.352479 -14.782539 2.171817 -0.630030 5.078053 -14.131554 -1.147835 -1.913334 5.010390 1.442334 -2.327738 -2.846197 2.930234 -1.510850 -1.021058 -1.123283 7.257430 -6.348482 1.041253 9.359836 5.937902 -1.057125 4.659812 3.346080 -3.707122 -2.768176 0.496235 -81.023969 -0.651989 33.776336 38.724833 -46.955624 -18.596740 -0.741915 -0.365013 -28.547515 25.549124 13.418757 6.501041 -7.125000 0.000000 0.000000 -0.913297 44.744891 0.004414 7.490697 2.068167 -0.506945 74.764498 -10.357061 16.324646 -5.997771 16.125296 -1.362023 0.735187 -0.699052 -3.993718 -20.961049 16.236039 -6.602733 7.125000 0.000000 0.000000 4.115444 -11.853989 3.190728
10.710804 18.502442 1.773008 1.389028 4.330668 -0.904232 -7.721280 3.272303 6.227455 -15.937652 -7.336367 -3.767337 -1.788769 5.765502 19.081011 -2.172645 8.440498 2.474122 0.156616 -2.548997 -7.025486 4.121780 -1.256946 -0.064107 8.830573 11.589720 -24.006346 -3.468974 -13.407281 38.982471 4.420056 -14.948344 2.344640 -0.705034 5.358982 -14.937187 -1.150885 -2.001009 4.951886 1.462344 -2.431767 -2.812622 2.963531 -1.580889 -0.865275 -1.103145 7.215692 -6.674325 1.048783 9.321769 5.979685 -1.048443 4.638138 3.438654 -3.701025 -2.757914 0.504047 -80.882628 -0.936565 33.966447 39.606464 -47.437273 -19.242264 -0.737838 -0.379392 -28.621492 25.370390 13.844902 6.656085 -7.125000 0.000000 0.000000 -1.136627 45.203462 -0.010479 7.492997 2.053344 -0.512630 74.918217 -10.532939 15.133124 -5.688701 15.682172 -1.290861 0.722031 -0.728657 -3.161889 -20.877337 16.755612 -6.772503 7.125000 0.000000 0.000000 4.208535 -11.297967 3.312666
10.712016 18.507118 1.875129 1.367003 4.669697 -0.844530 -7.730092 3.344007 6.325122 -15.842890 -7.393074 -3.346634 -1.855970 5.615936 18.674889 -2.120659 8.328242 2.627739 0.148131 -2.479864 -6.833750 4.192430 -1.245510 -0.108152 8.587066 11.684408 -23.972696 -3.026510 -13.010612 37.411637 4.476765 -15.078097 2.452975 -0.786841 5.662333 -15.807806 -1.153099 -2.091114 4.883656 1.478411 -2.538969 -2.775721 2.982380 -1.653380 -0.690700 -1.097882 7.167910 -7.049369 1.080712 9.278960 6.047282 -1.024075 4.614858 3.549889 -3.696859 -2.744937 0.510981 -80.723279 -1.223976 34.167431 40.507538 -47.926483 -19.906094 -0.733887 -0.403169 -28.715306 25.111553 14.500721 6.900638 -7.125000 0.000000 0.000000 -1.462388 45.912098 -0.033053 7.492099 2.039801 -0.518112 75.095939 -10.685219 13.866469 -5.377306 15.234085 -1.220394 0.706298 -0.760615 -2.275696 -20.774783 17.317644 -6.951349 7.125000 0.000000 0.000000 4.318410 -10.698227 3.451859
10.711751 18.509293 1.978386 1.284949 4.939785 -0.693438 -7.738356 3.397188 6.407434 -15.662875 -7.439023 -3.070343 -1.913144 5.488684 18.326886 -2.052596 8.179836 2.829184 0.140984 -2.419245 -6.665846 4.272611 -1.221327 -0.156325 8.392524 11.836993 -23.995749 -2.590377 -12.582374 35.835719 4.512872 -15.135721 2.355058 -0.798276 5.702615 -15.923975 -1.039513 -2.144591 4.702969 1.480208 -2.597938 -2.771563 2.894815 -1.695152 -0.574275 -1.137604 7.099509 -7.300447 1.184302 9.203924 6.204482 -0.961414 4.582366 3.657374 -3.700372 -2.733600 0.514794 -80.475276 -1.426192 34.445493 41.327996 -48.346064 -20.515364 -0.729006 -0.412135 -28.809788 25.052604 14.672810 6.966418 -7.125000 0.000000 0.000000 -1.544789 46.101932 -0.042290 7.478174 2.032226 -0.531063 75.365283 -10.961483 12.633618 -5.092922 14.818632 -1.157368 0.698518 -0.777056 -1.483606 -20.745285 17.510886 -7.014994 7.125000 0.000000 0.000000 4.349770 -10.492019 3.495399
10.711682 18.510509 2.081036 1.205279 5.200773 -0.542911 -7.746597 3.449599 6.489838 -15.487283 -7.483820 -2.797419 -1.968724 5.364022 17.987688 -1.982165 8.025128 3.026067 0.134280 -2.362099 -6.507568 4.352620 -1.197013 -0.203429 8.199161 11.983018 -24.021492 -2.159017 -12.151591 34.263236 4.543707 -15.182707 2.291771 -0.807076 5.733428 -16.012885 -0.926285 -2.194817 4.542037 1.482549 -2.653209 -2.774594 2.811986 -1.733421 -0.493321 -1.180904 7.034377 -7.502397 1.287843 9.129419 6.336263 -0.900476 4.550040 3.743583 -3.703756 -2.725984 0.518536 -80.240412 -1.602620 34.711141 42.139878 -48.756808 -21.117497 -0.723467 -0.415316 -28.914194 25.027497 14.683183 6.963995 -7.125000 0.000000 0.000000 -1.575339 46.114195 -0.044801 7.465241 2.025068 -0.545418 75.614697 -11.276266 11.496637 -4.816680 14.414951 -1.095585 0.693711 -0.789173 -0.775929 -20.721226 17.618850 -7.048665 7.125000 0.000000 0.000000 4.370245 -10.378136 3.522015
10.712895 18.506352 2.180039 1.145010 5.414890 -0.404029 -7.754755 3.499198 6.574183 -15.345309 -7.522858 -2.530984 -2.015907 5.252458 17.694621 -1.899358 7.836903 3.191932 0.130037 -2.324459 -6.403351 4.430757 -1.173099 -0.243911 8.008215 12.085434 -24.057776 -1.754967 -11.708827 32.711292 4.545623 -15.174125 2.449627 -0.806913 5.732939 -16.011417 -0.825718 -2.229389 4.506780 1.489370 -2.691282 -2.816631 2.766533 -1.754019 -0.614282 -1.241002 6.990226 -7.428650 1.384549 9.060957 6.311368 -0.853099 4.519526 3.705834 -3.705694 -2.739949 0.522149 -80.090396 -1.636164 34.897225 42.909018 -49.122281 -21.682911 -0.714158 -0.386061 -29.076509 25.181851 13.792953 6.579434 -7.125000 0.000000 0.000000 -1.325184 45.136421 -0.009228 7.459298 2.019799 -0.567288 75.739315 -11.804772 10.916662 -4.585541 14.077066 -1.040387 0.705545 -0.777447 -0.552812 -20.722269 17.262283 -6.917740 7.125000 0.000000 0.000000 4.334291 -10.767701 3.458483
